<svg version="1.1" id="Layer_1" xmlns="http://www.w3.org/2000/svg" xmlns:xlink="http://www.w3.org/1999/xlink" x="0px" y="0px"
	 width="100%" viewBox="0 0 6000 6000" enable-background="new 0 0 6000 6000" xml:space="preserve">
<path fill="#FFFFFF" opacity="1.000000" stroke="none" 
	d="
M4009.621582,2002.107666 
	C4007.271484,2003.113892 4004.966309,2004.837280 4002.562500,2004.988770 
	C3995.921875,2005.407471 3989.239990,2005.187866 3982.574463,2005.187866 
	C3333.312988,2005.190796 2684.051514,2005.190552 2034.790039,2005.190552 
	C2026.886963,2005.190552 2018.983887,2005.190552 2009.842651,2005.190552 
	C2009.242798,2010.152832 2008.537354,2013.868042 2008.400635,2017.603882 
	C2008.181641,2023.595337 2008.338623,2029.600464 2008.338623,2035.599854 
	C2008.338379,2950.165283 2008.338379,3864.730957 2008.338379,4779.296387 
	C2008.338379,4787.184082 2008.338379,4795.071289 2008.338379,4801.237793 
	C2006.552368,4803.416504 2006.218872,4804.077637 2005.682007,4804.406250 
	C2005.158936,4804.724609 2004.427734,4804.812988 2003.787964,4804.813477 
	C1744.490234,4804.949707 1485.192383,4805.071777 1225.894653,4805.178223 
	C1221.902466,4805.180176 1217.903931,4805.102051 1213.921875,4804.847656 
	C1212.707397,4804.770020 1211.538696,4803.976074 1210.349609,4803.508301 
	C1209.950684,4802.973145 1209.482910,4802.476074 1209.170898,4801.895508 
	C1208.872559,4801.340820 1208.554932,4800.697754 1208.554810,4800.093750 
	C1208.471436,3604.894531 1208.413208,2409.695312 1208.387817,1214.496094 
	C1208.387817,1212.523560 1208.796509,1210.536133 1209.178589,1208.587891 
	C1209.284302,1208.048462 1209.983032,1207.625244 1211.281372,1206.174683 
	C1212.823853,1205.954102 1215.358521,1205.274048 1217.893188,1205.273926 
	C2147.036865,1205.228271 3076.180420,1205.229126 4006.660645,1205.229126 
	C4007.303467,1209.836548 4008.091309,1213.518677 4008.269775,1217.229980 
	C4008.525635,1222.550537 4008.337646,1227.892456 4008.338135,1233.225220 
	C4008.363770,1488.531372 4008.389160,1743.837402 4008.912598,2000.761108 
	C4009.410400,2002.378662 4009.621582,2002.107788 4009.621582,2002.107666 
z"/>
<path fill="#FFFFFF" opacity="1.000000" stroke="none" 
	d="
M4009.301758,2002.511719 
	C4010.913086,2003.464844 4012.599854,2004.898438 4014.359131,2004.993530 
	C4020.341553,2005.317871 4026.349609,2005.197510 4032.347900,2005.197632 
	C4282.979492,2005.202393 4533.610840,2005.198730 4784.242188,2005.215576 
	C4791.466797,2005.216064 4798.690918,2005.424561 4804.420898,2005.512939 
	C4806.347168,2007.156128 4806.975098,2007.496704 4807.301270,2008.023804 
	C4807.636719,2008.566040 4807.826660,2009.290161 4807.826660,2009.934814 
	C4808.003906,2939.119385 4808.159180,3868.303711 4808.273438,4797.488281 
	C4808.273926,4799.369141 4807.644531,4801.249512 4807.451660,4802.330566 
	C4806.427734,4803.562012 4806.093750,4804.237793 4805.551270,4804.538086 
	C4805.007812,4804.839355 4804.256348,4804.844727 4803.596191,4804.845215 
	C4542.306152,4804.965332 4281.015625,4805.076172 4019.725586,4805.151367 
	C4017.084961,4805.152344 4014.437500,4804.727051 4011.808838,4804.384277 
	C4011.254150,4804.311523 4010.766846,4803.722656 4009.315674,4802.740234 
	C4009.063477,4800.968262 4008.460938,4798.456055 4008.394775,4795.929688 
	C4008.238037,4789.935059 4008.331055,4783.932617 4008.331055,4777.933594 
	C4008.330566,3862.062744 4008.330322,2946.191895 4008.340088,2030.320923 
	C4008.340088,2022.324463 4008.480225,2014.327881 4009.088379,2004.219604 
	C4009.621582,2002.107788 4009.410400,2002.378662 4009.301758,2002.511719 
z"/>
</svg>